<?xml version="1.0" encoding="UTF-8" standalone="no"?>
<svg
   xmlns:dc="http://purl.org/dc/elements/1.1/"
   xmlns:cc="http://creativecommons.org/ns#"
   xmlns:rdf="http://www.w3.org/1999/02/22-rdf-syntax-ns#"
   xmlns:svg="http://www.w3.org/2000/svg"
   xmlns="http://www.w3.org/2000/svg"
   xmlns:sodipodi="http://sodipodi.sourceforge.net/DTD/sodipodi-0.dtd"
   xmlns:inkscape="http://www.inkscape.org/namespaces/inkscape"
   version="1.1"
   id="svg2"
   xml:space="preserve"
   width="687.98932"
   height="225.37601"
   viewBox="0 0 687.98932 225.37601"
   sodipodi:docname="Bürgerstiftung.ai"><metadata
     id="metadata8"><rdf:RDF><cc:Work
         rdf:about=""><dc:format>image/svg+xml</dc:format><dc:type
           rdf:resource="http://purl.org/dc/dcmitype/StillImage" /></cc:Work></rdf:RDF></metadata><defs
     id="defs6"><clipPath
       clipPathUnits="userSpaceOnUse"
       id="clipPath18"><path
         d="M 0,0 H 515.992 V 169.033 H 0 Z"
         id="path16" /></clipPath></defs><sodipodi:namedview
     pagecolor="#ffffff"
     bordercolor="#666666"
     borderopacity="1"
     objecttolerance="10"
     gridtolerance="10"
     guidetolerance="10"
     inkscape:pageopacity="0"
     inkscape:pageshadow="2"
     inkscape:window-width="640"
     inkscape:window-height="480"
     id="namedview4" /><g
     id="g10"
     inkscape:groupmode="layer"
     inkscape:label="Bürgerstiftung"
     transform="matrix(1.3333333,0,0,-1.3333333,0,225.376)"><g
       id="g12"><g
         id="g14"
         clip-path="url(#clipPath18)"><g
           id="g20"
           transform="translate(2.5981,44.5615)"><path
             d="m 0,0 h 4.597 c 1.094,0 2.073,0.151 2.936,0.455 0.862,0.303 1.592,0.722 2.193,1.258 0.6,0.536 1.06,1.168 1.38,1.896 0.321,0.728 0.481,1.524 0.481,2.386 0,1.899 -0.585,3.361 -1.756,4.387 C 8.66,11.407 6.915,11.92 4.597,11.92 H 0 Z m 0,-1.433 v -9.962 h -1.783 v 24.73 h 6.38 c 2.901,0 5.088,-0.635 6.562,-1.904 C 12.633,10.16 13.37,8.349 13.37,5.995 13.37,4.911 13.169,3.915 12.767,3.007 12.365,2.098 11.785,1.313 11.028,0.655 10.271,-0.003 9.35,-0.516 8.267,-0.882 7.183,-1.249 5.959,-1.433 4.597,-1.433 Z"
             style="fill:#393536;fill-opacity:1;fill-rule:nonzero;stroke:none"
             id="path22" /></g><g
           id="g24"
           transform="translate(41.2393,45.541)"><path
             d="m 0,0 c 0,1.724 -0.239,3.273 -0.717,4.648 -0.478,1.375 -1.151,2.54 -2.018,3.496 -0.869,0.955 -1.914,1.686 -3.138,2.193 -1.223,0.507 -2.58,0.761 -4.071,0.761 -1.469,0 -2.811,-0.254 -4.029,-0.761 C -15.19,9.83 -16.239,9.099 -17.119,8.144 -17.999,7.188 -18.68,6.023 -19.164,4.648 -19.647,3.273 -19.889,1.724 -19.889,0 c 0,-1.736 0.242,-3.289 0.725,-4.658 0.484,-1.369 1.165,-2.531 2.045,-3.487 0.88,-0.956 1.929,-1.683 3.146,-2.184 1.218,-0.501 2.56,-0.752 4.029,-0.752 1.491,0 2.848,0.251 4.071,0.752 1.224,0.501 2.269,1.228 3.138,2.184 0.867,0.956 1.54,2.118 2.018,3.487 C -0.239,-3.289 0,-1.736 0,0 m 1.853,0 c 0,-1.911 -0.286,-3.645 -0.857,-5.2 -0.571,-1.555 -1.375,-2.883 -2.412,-3.985 -1.037,-1.1 -2.278,-1.951 -3.722,-2.551 -1.445,-0.6 -3.048,-0.9 -4.806,-0.9 -1.737,0 -3.327,0.3 -4.772,0.9 -1.445,0.6 -2.685,1.451 -3.722,2.551 -1.038,1.102 -1.844,2.43 -2.421,3.985 -0.577,1.555 -0.865,3.289 -0.865,5.2 0,1.898 0.288,3.626 0.865,5.182 0.577,1.555 1.383,2.883 2.421,3.984 1.037,1.102 2.277,1.954 3.722,2.561 1.445,0.605 3.035,0.909 4.772,0.909 1.758,0 3.361,-0.301 4.806,-0.901 1.444,-0.6 2.685,-1.454 3.722,-2.56 C -0.379,8.068 0.425,6.737 0.996,5.182 1.567,3.626 1.853,1.898 1.853,0"
             style="fill:#393536;fill-opacity:1;fill-rule:nonzero;stroke:none"
             id="path26" /></g><g
           id="g28"
           transform="translate(62.9976,57.8965)"><path
             d="m 0,0 v -1.521 h -8.686 v -23.208 h -1.783 v 23.208 h -8.738 V 0 Z"
             style="fill:#393536;fill-opacity:1;fill-rule:nonzero;stroke:none"
             id="path30" /></g><g
           id="g32"
           transform="translate(79.25,54.8906)"><path
             d="m 0,0 c -0.104,-0.198 -0.256,-0.297 -0.454,-0.297 -0.152,0 -0.348,0.108 -0.588,0.323 C -1.281,0.242 -1.606,0.48 -2.015,0.743 -2.424,1.005 -2.936,1.247 -3.549,1.468 -4.163,1.689 -4.919,1.8 -5.819,1.8 -6.719,1.8 -7.511,1.672 -8.195,1.416 -8.879,1.159 -9.452,0.81 -9.914,0.367 c -0.461,-0.443 -0.812,-0.956 -1.051,-1.538 -0.24,-0.583 -0.36,-1.194 -0.36,-1.835 0,-0.839 0.178,-1.532 0.534,-2.08 0.355,-0.548 0.825,-1.014 1.409,-1.397 0.583,-0.385 1.245,-0.708 1.986,-0.971 0.741,-0.262 1.502,-0.522 2.284,-0.777 0.782,-0.257 1.543,-0.54 2.284,-0.848 0.741,-0.309 1.403,-0.696 1.986,-1.162 0.584,-0.466 1.053,-1.04 1.409,-1.722 0.356,-0.682 0.534,-1.529 0.534,-2.543 0,-1.037 -0.178,-2.013 -0.533,-2.927 -0.356,-0.915 -0.871,-1.711 -1.547,-2.385 -0.675,-0.676 -1.502,-1.209 -2.481,-1.6 -0.979,-0.39 -2.098,-0.585 -3.356,-0.585 -1.631,0 -3.035,0.288 -4.212,0.865 -1.177,0.576 -2.208,1.366 -3.093,2.367 l 0.489,0.77 c 0.14,0.175 0.303,0.262 0.489,0.262 0.105,0 0.24,-0.07 0.403,-0.209 0.163,-0.141 0.362,-0.313 0.595,-0.516 0.233,-0.204 0.514,-0.426 0.84,-0.664 0.326,-0.239 0.706,-0.461 1.138,-0.664 0.431,-0.204 0.927,-0.376 1.487,-0.516 0.56,-0.14 1.196,-0.21 1.908,-0.21 0.98,0 1.855,0.149 2.625,0.446 0.771,0.297 1.421,0.702 1.952,1.215 0.53,0.512 0.936,1.121 1.216,1.826 0.28,0.705 0.42,1.459 0.42,2.263 0,0.874 -0.178,1.593 -0.534,2.159 -0.356,0.564 -0.826,1.037 -1.409,1.416 -0.583,0.378 -1.246,0.695 -1.986,0.952 -0.741,0.256 -1.503,0.507 -2.284,0.751 -0.782,0.245 -1.543,0.518 -2.284,0.822 -0.741,0.303 -1.403,0.689 -1.986,1.162 -0.584,0.472 -1.054,1.06 -1.41,1.765 -0.355,0.705 -0.533,1.588 -0.533,2.647 0,0.827 0.157,1.626 0.472,2.395 0.315,0.769 0.776,1.448 1.383,2.036 0.607,0.588 1.356,1.06 2.249,1.416 0.892,0.355 1.91,0.533 3.054,0.533 1.283,0 2.435,-0.204 3.456,-0.612 1.021,-0.408 1.951,-1.031 2.79,-1.87 z"
             style="fill:#393536;fill-opacity:1;fill-rule:nonzero;stroke:none"
             id="path34" /></g><g
           id="g36"
           transform="translate(104.5039,45.541)"><path
             d="m 0,0 c 0,1.724 -0.239,3.262 -0.716,4.613 -0.478,1.352 -1.151,2.493 -2.019,3.426 -0.868,0.932 -1.913,1.643 -3.137,2.132 -1.223,0.489 -2.581,0.734 -4.072,0.734 h -7.218 v -21.829 h 7.218 c 1.491,0 2.849,0.245 4.072,0.735 1.224,0.489 2.269,1.2 3.137,2.131 0.868,0.933 1.541,2.075 2.019,3.426 C -0.239,-3.28 0,-1.736 0,0 m 1.853,0 c 0,-1.911 -0.286,-3.63 -0.856,-5.156 -0.572,-1.527 -1.375,-2.825 -2.413,-3.898 -1.037,-1.072 -2.277,-1.893 -3.722,-2.464 -1.445,-0.571 -3.047,-0.856 -4.806,-0.856 h -9.018 v 24.729 h 9.018 c 1.759,0 3.361,-0.285 4.806,-0.856 1.445,-0.57 2.685,-1.392 3.722,-2.464 C -0.378,7.963 0.425,6.664 0.997,5.138 1.567,3.611 1.853,1.898 1.853,0"
             style="fill:#393536;fill-opacity:1;fill-rule:nonzero;stroke:none"
             id="path38" /></g><g
           id="g40"
           transform="translate(113.6445,42.1504)"><path
             d="M 0,0 H 11.08 L 6.029,12.496 C 5.948,12.693 5.866,12.918 5.785,13.169 5.703,13.419 5.622,13.684 5.54,13.964 5.458,13.684 5.377,13.419 5.295,13.169 5.214,12.918 5.132,12.688 5.051,12.479 Z M 16.551,-8.983 H 15.17 c -0.163,0 -0.297,0.044 -0.402,0.13 -0.105,0.088 -0.186,0.202 -0.245,0.341 l -2.919,7.184 H -0.542 L -3.443,-8.512 C -3.49,-8.64 -3.571,-8.75 -3.688,-8.844 -3.804,-8.937 -3.944,-8.983 -4.107,-8.983 H -5.47 L 4.649,15.746 h 1.783 z"
             style="fill:#393536;fill-opacity:1;fill-rule:nonzero;stroke:none"
             id="path42" /></g><g
           id="g44"
           transform="translate(146.4478,39.3184)"><path
             d="m 0,0 c 0.07,0.187 0.143,0.37 0.218,0.551 0.076,0.18 0.16,0.352 0.254,0.515 l 9.717,17.18 c 0.093,0.151 0.186,0.245 0.28,0.28 0.093,0.035 0.221,0.052 0.384,0.052 h 1.241 V -6.151 h -1.573 v 21.077 c 0,0.303 0.018,0.623 0.053,0.961 L 0.839,-1.397 C 0.676,-1.701 0.443,-1.853 0.14,-1.853 h -0.28 c -0.291,0 -0.524,0.152 -0.699,0.456 l -9.996,17.301 c 0.034,-0.338 0.052,-0.664 0.052,-0.978 V -6.151 h -1.556 v 24.729 h 1.224 c 0.163,0 0.294,-0.017 0.393,-0.052 0.099,-0.035 0.195,-0.129 0.288,-0.28 L -0.455,1.049 C -0.28,0.723 -0.128,0.373 0,0"
             style="fill:#393536;fill-opacity:1;fill-rule:nonzero;stroke:none"
             id="path46" /></g><g
           id="g48"
           transform="translate(180.7026,57.8965)"><path
             d="m 0,0 v -1.485 h -13.021 v -9.997 h 10.836 v -1.451 H -13.021 V -23.244 H 0 v -1.485 H -14.821 V 0 Z"
             style="fill:#393536;fill-opacity:1;fill-rule:nonzero;stroke:none"
             id="path50" /></g><g
           id="g52"
           transform="translate(188.8462,45.6807)"><path
             d="m 0,0 h 4.299 c 1.096,0 2.077,0.131 2.945,0.393 0.868,0.262 1.602,0.638 2.202,1.128 0.6,0.489 1.057,1.077 1.372,1.764 0.315,0.688 0.472,1.462 0.472,2.324 0,1.76 -0.577,3.065 -1.73,3.915 -1.154,0.851 -2.831,1.277 -5.034,1.277 H 0 Z m 0,-1.328 v -11.186 h -1.783 v 24.73 h 6.309 c 2.855,0 4.987,-0.55 6.397,-1.652 1.41,-1.1 2.115,-2.717 2.115,-4.849 0,-0.944 -0.163,-1.807 -0.49,-2.587 C 12.222,2.348 11.753,1.663 11.142,1.074 10.53,0.486 9.793,0.003 8.931,-0.376 8.068,-0.755 7.096,-1.002 6.012,-1.119 c 0.28,-0.175 0.53,-0.407 0.752,-0.698 l 8.511,-10.697 h -1.556 c -0.186,0 -0.346,0.035 -0.48,0.105 -0.135,0.07 -0.265,0.186 -0.393,0.349 L 4.929,-2.027 c -0.199,0.256 -0.411,0.436 -0.638,0.542 -0.228,0.104 -0.58,0.157 -1.058,0.157 z"
             style="fill:#393536;fill-opacity:1;fill-rule:nonzero;stroke:none"
             id="path54" /></g><g
           id="g56"
           transform="translate(218.0674,44.5791)"><path
             d="m 0,0 v -8.721 h 5.417 c 0.968,0 1.798,0.111 2.491,0.332 0.693,0.222 1.264,0.534 1.713,0.936 0.448,0.401 0.777,0.879 0.987,1.432 0.21,0.554 0.315,1.163 0.315,1.827 0,1.293 -0.458,2.315 -1.372,3.067 C 8.636,-0.375 7.253,0 5.4,0 Z m 0,2.412 h 4.474 c 0.955,0 1.782,0.105 2.482,0.315 0.699,0.21 1.278,0.501 1.738,0.874 0.461,0.373 0.802,0.824 1.023,1.354 0.221,0.53 0.332,1.109 0.332,1.739 0,1.468 -0.443,2.545 -1.328,3.233 -0.886,0.687 -2.261,1.031 -4.125,1.031 H 0 Z m -3.391,-13.824 v 25.044 h 7.987 c 1.538,0 2.863,-0.152 3.976,-0.454 1.113,-0.303 2.028,-0.735 2.744,-1.293 0.717,-0.56 1.247,-1.244 1.591,-2.054 0.343,-0.81 0.515,-1.722 0.515,-2.735 0,-0.617 -0.096,-1.212 -0.288,-1.783 C 12.941,4.742 12.65,4.212 12.26,3.723 11.869,3.233 11.38,2.797 10.792,2.412 10.203,2.027 9.513,1.713 8.721,1.469 c 1.829,-0.362 3.21,-1.021 4.142,-1.976 0.932,-0.955 1.398,-2.214 1.398,-3.774 0,-1.061 -0.195,-2.028 -0.586,-2.902 -0.39,-0.874 -0.961,-1.625 -1.712,-2.255 -0.752,-0.628 -1.672,-1.115 -2.762,-1.458 -1.089,-0.344 -2.333,-0.516 -3.731,-0.516 z"
             style="fill:#393536;fill-opacity:1;fill-rule:nonzero;stroke:none"
             id="path58" /></g><g
           id="g60"
           transform="translate(252.6709,62.2832)"><path
             d="m 0,0 c 0,-0.256 -0.052,-0.498 -0.157,-0.725 -0.105,-0.227 -0.245,-0.428 -0.42,-0.603 -0.174,-0.175 -0.378,-0.312 -0.611,-0.41 -0.233,-0.1 -0.478,-0.15 -0.734,-0.15 -0.268,0 -0.519,0.05 -0.752,0.15 -0.233,0.098 -0.437,0.235 -0.612,0.41 -0.174,0.175 -0.311,0.376 -0.41,0.603 -0.099,0.227 -0.149,0.469 -0.149,0.725 0,0.269 0.05,0.521 0.149,0.761 0.099,0.238 0.236,0.445 0.41,0.62 0.175,0.175 0.379,0.314 0.612,0.42 0.233,0.104 0.484,0.157 0.752,0.157 0.256,0 0.501,-0.053 0.734,-0.157 0.233,-0.106 0.437,-0.245 0.611,-0.42 0.175,-0.175 0.315,-0.382 0.42,-0.62 C -0.052,0.521 0,0.269 0,0 m -7.445,0 c 0,-0.256 -0.053,-0.498 -0.157,-0.725 -0.105,-0.227 -0.245,-0.428 -0.419,-0.603 -0.175,-0.175 -0.382,-0.312 -0.621,-0.41 -0.239,-0.1 -0.492,-0.15 -0.76,-0.15 -0.245,0 -0.481,0.05 -0.708,0.15 -0.227,0.098 -0.429,0.235 -0.603,0.41 -0.175,0.175 -0.315,0.376 -0.419,0.603 -0.105,0.227 -0.158,0.469 -0.158,0.725 0,0.269 0.053,0.521 0.158,0.761 0.104,0.238 0.244,0.445 0.419,0.62 0.174,0.175 0.376,0.314 0.603,0.42 0.227,0.104 0.463,0.157 0.708,0.157 0.268,0 0.521,-0.053 0.76,-0.157 0.239,-0.106 0.446,-0.245 0.621,-0.42 0.174,-0.175 0.314,-0.382 0.419,-0.62 C -7.498,0.521 -7.445,0.269 -7.445,0 m 1.8,-26.425 c 1.037,0 1.963,0.175 2.779,0.525 0.815,0.349 1.506,0.838 2.071,1.467 0.565,0.629 0.996,1.381 1.293,2.255 0.297,0.874 0.446,1.835 0.446,2.884 v 15.222 h 3.373 v -15.222 c 0,-1.445 -0.23,-2.785 -0.691,-4.019 -0.46,-1.236 -1.118,-2.305 -1.974,-3.208 -0.857,-0.903 -1.902,-1.611 -3.137,-2.124 -1.236,-0.512 -2.622,-0.768 -4.16,-0.768 -1.538,0 -2.924,0.256 -4.159,0.768 -1.236,0.513 -2.284,1.221 -3.146,2.124 -0.863,0.903 -1.524,1.972 -1.984,3.208 -0.46,1.234 -0.69,2.574 -0.69,4.019 v 15.222 h 3.373 v -15.204 c 0,-1.049 0.148,-2.01 0.445,-2.884 0.298,-0.874 0.728,-1.626 1.294,-2.255 0.565,-0.629 1.258,-1.121 2.079,-1.477 0.822,-0.355 1.751,-0.533 2.788,-0.533"
             style="fill:#393536;fill-opacity:1;fill-rule:nonzero;stroke:none"
             id="path62" /></g><g
           id="g64"
           transform="translate(266.5303,46.082)"><path
             d="M 0,0 H 3.548 C 4.538,0 5.409,0.12 6.16,0.358 6.912,0.598 7.541,0.936 8.048,1.372 8.555,1.81 8.937,2.33 9.192,2.937 9.449,3.542 9.577,4.212 9.577,4.946 9.577,6.437 9.085,7.562 8.101,8.319 7.115,9.076 5.65,9.455 3.705,9.455 H 0 Z m 0,-2.464 v -10.451 h -3.373 v 25.044 h 7.078 c 1.584,0 2.953,-0.16 4.107,-0.481 1.154,-0.32 2.106,-0.783 2.858,-1.389 C 11.421,9.653 11.978,8.922 12.339,8.066 12.699,7.21 12.88,6.251 12.88,5.191 12.88,4.306 12.74,3.479 12.461,2.709 12.182,1.94 11.776,1.25 11.246,0.639 10.716,0.026 10.069,-0.495 9.307,-0.926 8.543,-1.357 7.678,-1.684 6.711,-1.904 7.131,-2.149 7.503,-2.505 7.829,-2.971 l 7.306,-9.944 h -3.006 c -0.618,0 -1.072,0.238 -1.363,0.717 L 4.265,-3.25 c -0.199,0.279 -0.414,0.48 -0.648,0.603 -0.232,0.122 -0.582,0.183 -1.048,0.183 z"
             style="fill:#393536;fill-opacity:1;fill-rule:nonzero;stroke:none"
             id="path66" /></g><g
           id="g68"
           transform="translate(295.6816,35.6309)"><path
             d="M 0,0 C 0.675,0 1.296,0.032 1.861,0.097 2.426,0.16 2.959,0.257 3.46,0.385 3.961,0.513 4.433,0.667 4.876,0.848 5.318,1.028 5.761,1.235 6.204,1.469 V 6.991 H 2.324 C 2.103,6.991 1.925,7.055 1.791,7.184 1.657,7.312 1.59,7.469 1.59,7.655 V 9.578 H 9.28 V -0.034 C 8.65,-0.489 7.995,-0.885 7.313,-1.223 6.632,-1.562 5.904,-1.844 5.129,-2.07 4.354,-2.298 3.524,-2.467 2.639,-2.577 1.753,-2.688 0.792,-2.743 -0.245,-2.743 c -1.818,0 -3.484,0.311 -4.998,0.934 -1.515,0.623 -2.82,1.497 -3.915,2.622 -1.096,1.124 -1.948,2.473 -2.561,4.046 -0.611,1.573 -0.917,3.303 -0.917,5.191 0,1.91 0.3,3.652 0.9,5.225 0.6,1.573 1.457,2.921 2.569,4.046 1.112,1.124 2.458,1.995 4.037,2.613 1.579,0.617 3.347,0.926 5.305,0.926 0.99,0 1.91,-0.073 2.761,-0.218 0.85,-0.146 1.639,-0.356 2.368,-0.629 0.728,-0.275 1.401,-0.607 2.018,-0.996 0.617,-0.391 1.195,-0.83 1.731,-1.32 L 8.092,18.159 c -0.198,-0.315 -0.455,-0.472 -0.77,-0.472 -0.186,0 -0.39,0.064 -0.611,0.192 -0.291,0.163 -0.618,0.361 -0.979,0.595 -0.361,0.232 -0.801,0.457 -1.319,0.672 -0.519,0.215 -1.131,0.399 -1.836,0.551 -0.705,0.151 -1.541,0.227 -2.508,0.227 -1.409,0 -2.685,-0.231 -3.827,-0.691 -1.141,-0.46 -2.114,-1.118 -2.919,-1.974 -0.803,-0.857 -1.421,-1.894 -1.852,-3.112 -0.431,-1.216 -0.647,-2.583 -0.647,-4.097 0,-1.585 0.225,-2.997 0.673,-4.238 C -8.055,4.57 -7.422,3.519 -6.606,2.657 -5.791,1.795 -4.824,1.137 -3.705,0.682 -2.587,0.228 -1.352,0 0,0"
             style="fill:#393536;fill-opacity:1;fill-rule:nonzero;stroke:none"
             id="path70" /></g><g
           id="g72"
           transform="translate(325.6006,58.2109)"><path
             d="m 0,0 v -2.761 h -12.023 v -8.319 h 9.734 v -2.656 h -9.734 v -8.546 H 0 v -2.762 H -15.432 V 0 Z"
             style="fill:#393536;fill-opacity:1;fill-rule:nonzero;stroke:none"
             id="path74" /></g><g
           id="g76"
           transform="translate(334.2002,46.082)"><path
             d="M 0,0 H 3.548 C 4.538,0 5.409,0.12 6.16,0.358 6.912,0.598 7.541,0.936 8.048,1.372 8.555,1.81 8.937,2.33 9.192,2.937 9.449,3.542 9.577,4.212 9.577,4.946 9.577,6.437 9.085,7.562 8.101,8.319 7.115,9.076 5.65,9.455 3.705,9.455 H 0 Z m 0,-2.464 v -10.451 h -3.373 v 25.044 h 7.078 c 1.584,0 2.953,-0.16 4.107,-0.481 1.154,-0.32 2.106,-0.783 2.858,-1.389 C 11.421,9.653 11.978,8.922 12.339,8.066 12.699,7.21 12.88,6.251 12.88,5.191 12.88,4.306 12.74,3.479 12.461,2.709 12.182,1.94 11.776,1.25 11.246,0.639 10.716,0.026 10.069,-0.495 9.307,-0.926 8.543,-1.357 7.678,-1.684 6.711,-1.904 7.131,-2.149 7.503,-2.505 7.829,-2.971 l 7.306,-9.944 h -3.006 c -0.618,0 -1.072,0.238 -1.363,0.717 L 4.265,-3.25 c -0.199,0.279 -0.414,0.48 -0.648,0.603 -0.232,0.122 -0.582,0.183 -1.048,0.183 z"
             style="fill:#393536;fill-opacity:1;fill-rule:nonzero;stroke:none"
             id="path78" /></g><g
           id="g80"
           transform="translate(365.8154,54.2969)"><path
             d="m 0,0 c -0.105,-0.175 -0.216,-0.307 -0.332,-0.394 -0.117,-0.087 -0.269,-0.13 -0.454,-0.13 -0.199,0 -0.429,0.098 -0.691,0.296 -0.262,0.199 -0.594,0.416 -0.996,0.656 -0.402,0.238 -0.885,0.457 -1.451,0.655 -0.565,0.198 -1.249,0.297 -2.054,0.297 -0.756,0 -1.426,-0.102 -2.009,-0.306 -0.583,-0.204 -1.07,-0.48 -1.459,-0.83 -0.391,-0.349 -0.685,-0.76 -0.883,-1.232 -0.198,-0.472 -0.297,-0.982 -0.297,-1.529 0,-0.699 0.172,-1.279 0.516,-1.739 0.343,-0.461 0.797,-0.853 1.363,-1.18 0.564,-0.326 1.206,-0.609 1.922,-0.847 0.717,-0.239 1.451,-0.487 2.202,-0.743 0.752,-0.256 1.485,-0.545 2.202,-0.866 0.717,-0.32 1.358,-0.724 1.923,-1.213 0.564,-0.49 1.019,-1.09 1.363,-1.801 0.343,-0.711 0.516,-1.584 0.516,-2.621 0,-1.096 -0.187,-2.124 -0.56,-3.085 -0.373,-0.961 -0.918,-1.797 -1.633,-2.508 -0.717,-0.711 -1.597,-1.27 -2.64,-1.678 -1.043,-0.407 -2.228,-0.611 -3.557,-0.611 -1.619,0 -3.095,0.294 -4.429,0.882 -1.335,0.589 -2.474,1.383 -3.417,2.385 l 0.978,1.609 c 0.094,0.128 0.207,0.235 0.341,0.323 0.134,0.087 0.282,0.131 0.446,0.131 0.244,0 0.524,-0.131 0.839,-0.394 0.314,-0.261 0.707,-0.549 1.18,-0.865 0.471,-0.314 1.042,-0.602 1.712,-0.864 0.67,-0.263 1.488,-0.394 2.456,-0.394 0.803,0 1.52,0.111 2.149,0.332 0.629,0.221 1.162,0.534 1.6,0.935 0.436,0.402 0.771,0.883 1.005,1.442 0.232,0.56 0.349,1.183 0.349,1.87 0,0.757 -0.173,1.378 -0.515,1.862 -0.344,0.483 -0.796,0.887 -1.355,1.215 -0.559,0.325 -1.197,0.602 -1.914,0.83 -0.717,0.226 -1.45,0.46 -2.202,0.698 -0.752,0.239 -1.485,0.516 -2.202,0.831 -0.717,0.314 -1.355,0.722 -1.914,1.223 -0.559,0.501 -1.011,1.128 -1.355,1.879 -0.344,0.751 -0.514,1.68 -0.514,2.788 0,0.884 0.17,1.741 0.514,2.568 0.344,0.827 0.842,1.561 1.495,2.202 0.653,0.641 1.459,1.153 2.42,1.538 0.962,0.385 2.066,0.577 3.313,0.577 1.397,0 2.674,-0.221 3.827,-0.664 1.153,-0.443 2.161,-1.084 3.023,-1.923 z"
             style="fill:#393536;fill-opacity:1;fill-rule:nonzero;stroke:none"
             id="path82" /></g><g
           id="g84"
           transform="translate(388.5703,58.2109)"><path
             d="m 0,0 v -2.849 h -8.092 v -22.195 h -3.39 v 22.195 h -8.127 V 0 Z"
             style="fill:#393536;fill-opacity:1;fill-rule:nonzero;stroke:none"
             id="path86" /></g><path
           d="m 396.155,33.167 h -3.391 v 25.044 h 3.391 z"
           style="fill:#393536;fill-opacity:1;fill-rule:nonzero;stroke:none"
           id="path88" /><g
           id="g90"
           transform="translate(418.2979,58.2109)"><path
             d="m 0,0 v -2.761 h -12.023 v -8.756 h 10.276 v -2.761 h -10.276 v -10.766 h -3.409 V 0 Z"
             style="fill:#393536;fill-opacity:1;fill-rule:nonzero;stroke:none"
             id="path92" /></g><g
           id="g94"
           transform="translate(439.707,58.2109)"><path
             d="m 0,0 v -2.849 h -8.092 v -22.195 h -3.39 v 22.195 h -8.127 V 0 Z"
             style="fill:#393536;fill-opacity:1;fill-rule:nonzero;stroke:none"
             id="path96" /></g><g
           id="g98"
           transform="translate(453.0059,35.8584)"><path
             d="M 0,0 C 1.037,0 1.963,0.175 2.779,0.524 3.595,0.874 4.285,1.363 4.85,1.992 5.415,2.621 5.847,3.373 6.144,4.247 6.44,5.121 6.589,6.082 6.589,7.131 V 22.353 H 9.962 V 7.131 C 9.962,5.686 9.731,4.346 9.271,3.111 8.812,1.876 8.153,0.807 7.297,-0.096 6.44,-0.999 5.395,-1.707 4.16,-2.22 2.925,-2.732 1.538,-2.988 0,-2.988 c -1.538,0 -2.925,0.256 -4.159,0.768 -1.236,0.513 -2.284,1.221 -3.146,2.124 -0.863,0.903 -1.524,1.972 -1.984,3.207 -0.46,1.235 -0.69,2.575 -0.69,4.02 v 15.222 h 3.373 V 7.148 C -6.606,6.1 -6.457,5.139 -6.16,4.265 -5.863,3.391 -5.433,2.639 -4.867,2.01 -4.302,1.381 -3.608,0.889 -2.787,0.533 -1.966,0.178 -1.037,0 0,0"
             style="fill:#393536;fill-opacity:1;fill-rule:nonzero;stroke:none"
             id="path100" /></g><g
           id="g102"
           transform="translate(471.209,58.0977)"><path
             d="m 0,0 c 0.146,-0.076 0.312,-0.23 0.498,-0.463 l 14.506,-18.875 c -0.035,0.303 -0.059,0.597 -0.07,0.883 -0.012,0.285 -0.018,0.561 -0.018,0.83 V 0.113 h 2.971 v -25.044 h -1.712 c -0.269,0 -0.493,0.047 -0.673,0.14 -0.182,0.094 -0.358,0.251 -0.533,0.472 L 0.48,-5.462 C 0.504,-5.753 0.521,-6.038 0.532,-6.317 0.544,-6.598 0.55,-6.854 0.55,-7.087 V -24.931 H -2.421 V 0.113 h 1.748 C -0.37,0.113 -0.146,0.076 0,0"
             style="fill:#393536;fill-opacity:1;fill-rule:nonzero;stroke:none"
             id="path104" /></g><g
           id="g106"
           transform="translate(506.3809,35.6309)"><path
             d="M 0,0 C 0.675,0 1.296,0.032 1.861,0.097 2.426,0.16 2.959,0.257 3.46,0.385 3.961,0.513 4.433,0.667 4.876,0.848 5.318,1.028 5.761,1.235 6.204,1.469 V 6.991 H 2.324 C 2.103,6.991 1.925,7.055 1.791,7.184 1.657,7.312 1.59,7.469 1.59,7.655 V 9.578 H 9.28 V -0.034 C 8.65,-0.489 7.995,-0.885 7.313,-1.223 6.632,-1.562 5.904,-1.844 5.129,-2.07 4.354,-2.298 3.524,-2.467 2.639,-2.577 1.753,-2.688 0.792,-2.743 -0.245,-2.743 c -1.818,0 -3.484,0.311 -4.998,0.934 -1.515,0.623 -2.82,1.497 -3.915,2.622 -1.096,1.124 -1.948,2.473 -2.561,4.046 -0.611,1.573 -0.917,3.303 -0.917,5.191 0,1.91 0.3,3.652 0.9,5.225 0.6,1.573 1.457,2.921 2.569,4.046 1.112,1.124 2.458,1.995 4.037,2.613 1.579,0.617 3.347,0.926 5.305,0.926 0.99,0 1.91,-0.073 2.761,-0.218 0.85,-0.146 1.639,-0.356 2.368,-0.629 0.728,-0.275 1.401,-0.607 2.018,-0.996 0.617,-0.391 1.195,-0.83 1.731,-1.32 L 8.092,18.159 c -0.198,-0.315 -0.455,-0.472 -0.77,-0.472 -0.186,0 -0.39,0.064 -0.611,0.192 -0.291,0.163 -0.618,0.361 -0.979,0.595 -0.361,0.232 -0.801,0.457 -1.319,0.672 -0.519,0.215 -1.131,0.399 -1.836,0.551 -0.705,0.151 -1.541,0.227 -2.508,0.227 -1.409,0 -2.685,-0.231 -3.827,-0.691 -1.141,-0.46 -2.114,-1.118 -2.919,-1.974 -0.803,-0.857 -1.421,-1.894 -1.852,-3.112 -0.431,-1.216 -0.647,-2.583 -0.647,-4.097 0,-1.585 0.225,-2.997 0.673,-4.238 C -8.055,4.57 -7.422,3.519 -6.606,2.657 -5.791,1.795 -4.824,1.137 -3.705,0.682 -2.587,0.228 -1.352,0 0,0"
             style="fill:#393536;fill-opacity:1;fill-rule:nonzero;stroke:none"
             id="path108" /></g><g
           id="g110"
           transform="translate(400.4414,127.8169)"><path
             d="M 0,0 C 3.791,-1.953 12.121,-6.234 19.911,-10.166 L 0.783,-43.347 Z m 20.575,-48.867 -19.488,-0.142 18.871,32.735 z m 20.698,0.038 -9.169,0.047 -8.438,-0.062 -0.609,32.108 z m -5.038,30.726 c 1.302,-0.509 3.32,-1.37 5.645,-2.384 l -0.027,-23.104 -17.79,31.338 c 5.69,-2.848 10.515,-5.203 12.172,-5.85 m -38.361,-30.929 -17.99,-0.132 -0.188,33.232 18.194,-32.361 z m -0.094,-4.416 -86.31,-0.629 -54.866,-0.006 -54.863,0.006 -86.311,0.629 -0.029,1.326 39.547,-0.289 0.063,-0.124 0.106,0.123 38.77,-0.283 0.236,-0.319 0.337,0.314 37.643,-0.274 22.947,-0.003 h 1.554 1.556 l 22.947,0.003 37.643,0.274 0.338,-0.314 0.235,0.319 38.77,0.283 0.106,-0.123 0.064,0.124 39.546,0.289 z m -282.459,5.155 18.193,32.361 -0.188,-33.232 -17.99,0.132 z m 0.975,48.092 12.812,-6.586 c 0.069,-0.032 2.048,-0.957 4.757,-2.216 l -18.317,-32.581 z m 20.305,-16.144 16.769,-32.965 -16.954,0.124 z m 9.291,1.806 c 2.127,-0.961 5.146,-2.211 8.194,-3.439 l -0.067,-25.794 -16.923,33.27 c 3.002,-1.39 6.289,-2.904 8.796,-4.037 m 28.494,-15.713 -0.277,-19.208 -16.322,0.118 z m -17.212,11.041 c 4.508,-1.786 8.421,-3.282 8.721,-3.397 3.842,-1.423 6.449,-2.335 8.443,-2.991 l -17.234,-19.819 z m 20.297,-11.418 14.104,-18.96 -14.375,0.105 z m 1.93,3.495 c 1.644,-0.466 3.346,-0.949 6.224,-1.92 2.304,-0.777 4.767,-1.501 7.316,-2.176 l -0.116,-14.863 -14.286,19.205 c 0.29,-0.083 0.576,-0.164 0.862,-0.246 m 30.369,-11.321 -0.228,-11.265 -11.787,0.086 z m -13.746,6.448 c 4.322,-1.036 8.85,-1.904 13.387,-2.561 l -13.505,-12.566 z m 16.839,-6.278 12.613,-11.55 -12.844,0.093 z m 1.743,3.008 c 6.245,-0.83 9.639,-1.279 12.843,-1.588 l -0.094,-10.503 -13.279,12.162 z m 27.481,-6.765 -0.024,-7.844 -9.572,0.001 z m -11.551,4.915 c 4.742,-0.354 9.568,-0.527 9.625,-0.529 0.693,-0.009 1.505,-0.019 2.375,-0.031 l -12.093,-9.882 z m 24.468,-12.76 -9.853,10e-4 0.027,7.992 9.82,-7.505 z m 3.208,0.488 9.82,7.505 0.026,-7.992 -9.853,-10e-4 z m -3.38,11.572 v -0.026 c 0.587,0.003 1.18,0.007 1.772,0.012 0.595,-0.005 1.187,-0.009 1.774,-0.012 l 0.001,0.026 c 3.545,0.03 7.066,0.073 10.032,0.111 l -11.807,-9.023 -11.805,9.023 c 2.966,-0.038 6.488,-0.081 10.033,-0.111 m 25.888,-12.058 -9.573,-0.001 -0.024,7.844 z m -7.67,12.229 c 0.055,0.002 4.883,0.175 9.625,0.529 l 0.092,-10.442 -12.092,9.882 c 0.87,0.012 1.679,0.022 2.375,0.031 m 25.554,2.379 0.531,0.071 -13.281,-12.162 -0.092,10.503 c 3.204,0.309 6.597,0.758 12.842,1.588 m 1.974,-14.465 -12.844,-0.093 12.613,11.55 z m 14.877,0.108 -11.786,-0.086 -0.229,11.265 z m 1.73,17.627 0.12,-15.127 -13.505,12.566 c 4.537,0.657 9.064,1.525 13.385,2.561 m 10.401,2.953 c 2.878,0.971 4.579,1.454 6.223,1.92 0.287,0.082 0.573,0.163 0.863,0.246 l -14.286,-19.205 -0.117,14.863 c 2.549,0.675 5.012,1.399 7.317,2.176 m 8.425,-20.43 -14.376,-0.105 14.104,18.96 z m 19.413,0.142 -16.323,-0.118 -0.277,19.208 z m -8.109,26.734 c 0.3,0.115 4.213,1.611 8.721,3.397 l 0.069,-26.207 -17.234,19.819 c 1.994,0.656 4.603,1.568 8.444,2.991 m 20.002,8.069 c 2.508,1.133 5.794,2.647 8.797,4.037 l -16.924,-33.27 -0.066,25.794 c 3.049,1.228 6.067,2.478 8.193,3.439 m 9.478,-34.647 -16.954,-0.124 16.767,32.965 z m 7.306,42.399 12.813,6.586 0.748,-41.383 -18.316,32.581 c 2.708,1.259 4.687,2.184 4.755,2.216 m -271.675,-36.56 -19.127,33.181 c 7.789,3.932 16.12,8.213 19.911,10.166 z m -19.791,-5.52 0.617,32.593 18.871,-32.735 z m -3.091,0.023 -8.439,0.062 -9.168,-0.047 18.217,32.093 z m -18.213,28.357 c 2.325,1.014 4.342,1.875 5.644,2.384 1.657,0.647 6.483,3.002 12.171,5.85 l -17.789,-31.338 z m -17.381,-7.705 c 1.872,0.814 4.587,2.025 7.549,3.347 2.217,0.989 4.543,2.028 6.744,3.001 l 0.027,-23.348 z m -1.581,-20.736 0.007,17.808 14.937,-17.732 z m -3.09,-0.015 -12.643,-0.064 12.65,14.417 z m -14.576,14.013 c 3.609,1.104 9.753,3.106 14.392,4.808 l -14.453,-16.475 z m -3.146,-10.973 -9.945,7.23 c 3.053,0.797 6.233,1.728 8.7,2.452 0.463,0.136 0.895,0.263 1.296,0.38 z m -20.758,-3.235 8.786,8.119 11.03,-8.019 z m 434.169,27.294 c 2.2,-0.973 4.526,-2.012 6.743,-3.001 2.963,-1.322 5.678,-2.533 7.549,-3.347 l -14.32,-17 z m 15.874,-27.084 -14.946,0.076 14.938,17.732 z m 15.732,-0.079 -12.642,0.064 -0.007,14.353 z m 1.934,14.077 0.06,-11.667 -14.453,16.475 c 4.64,-1.702 10.783,-3.704 14.393,-4.808 m 4.389,-1.291 c 2.468,-0.724 5.649,-1.655 8.702,-2.452 l -9.946,-7.23 -0.051,10.062 c 0.401,-0.117 0.833,-0.244 1.295,-0.38 m 19.514,-12.917 -19.815,0.1 11.029,8.019 z m 11.327,-4.661 -51.66,0.82 -61.208,-0.446 0.028,1.325 31.209,0.228 10.925,-0.055 0.111,-0.195 0.163,0.193 70.411,-0.357 -0.044,3.091 -7.223,0.036 0.247,0.267 -9.707,8.97 c 0.318,-0.06 0.649,-0.128 0.944,-0.176 4.287,-0.701 13.221,-2.001 15.641,-2.351 l -0.045,3.128 c -2.965,0.43 -11.092,1.617 -15.096,2.271 -3.972,0.652 -10.407,2.542 -14.664,3.794 -0.977,0.286 -1.831,0.537 -2.501,0.728 -3.452,0.98 -15.108,4.743 -19.853,6.771 -1.814,0.773 -4.964,2.179 -8.445,3.733 -5.887,2.628 -12.56,5.606 -15.613,6.799 C 32.651,-13.386 -0.303,3.632 -0.636,3.804 L -1.343,4.169 -17.26,-4.014 c -0.105,-0.049 -10.674,-4.989 -16.693,-7.71 -5.993,-2.709 -19.695,-7.944 -19.818,-7.992 -7.864,-2.913 -10.487,-3.657 -13.264,-4.445 -1.681,-0.477 -3.417,-0.97 -6.366,-1.965 -7.339,-2.475 -16.218,-4.476 -25.001,-5.637 l -3.403,-0.452 c -6.774,-0.9 -10.174,-1.351 -13.593,-1.656 -5.234,-0.467 -11.596,-0.695 -11.628,-0.697 -3.694,-0.052 -10.137,-0.144 -16.37,-0.187 -6.23,0.043 -12.674,0.135 -16.367,0.187 -0.032,0.002 -6.395,0.23 -11.629,0.697 -3.419,0.305 -6.819,0.756 -13.593,1.656 l -3.402,0.452 c -8.784,1.161 -17.662,3.162 -25.001,5.637 -2.949,0.995 -4.686,1.488 -6.366,1.965 -2.778,0.788 -5.402,1.532 -13.265,4.445 -0.123,0.048 -13.824,5.283 -19.817,7.992 -6.02,2.721 -16.588,7.661 -16.695,7.71 l -15.917,8.183 -0.706,-0.365 c -0.333,-0.172 -33.287,-17.19 -37.995,-19.029 -3.052,-1.193 -9.725,-4.171 -15.612,-6.799 -3.481,-1.554 -6.632,-2.96 -8.446,-3.733 -4.744,-2.028 -16.4,-5.791 -19.852,-6.771 -0.67,-0.191 -1.524,-0.442 -2.501,-0.728 -4.257,-1.252 -10.692,-3.142 -14.664,-3.794 -4.005,-0.654 -12.131,-1.841 -15.096,-2.271 l -0.045,-3.128 c 2.42,0.35 11.355,1.65 15.641,2.351 0.296,0.048 0.625,0.116 0.944,0.176 l -9.707,-8.97 0.247,-0.267 -7.222,-0.036 -0.044,-3.091 70.411,0.357 0.161,-0.193 0.112,0.195 10.925,0.055 31.209,-0.228 0.028,-1.325 -61.209,0.446 -51.659,-0.82 -0.045,-3.091 51.717,0.821 150.585,-1.098 53.38,-0.005 v -0.001 h 1.495 1.497 v 0.001 l 53.38,0.005 150.584,1.098 51.717,-0.821 z"
             style="fill:#47bb3b;fill-opacity:1;fill-rule:nonzero;stroke:none"
             id="path112" /></g></g></g></g></svg>
